<svg width="8" height="16" viewBox="0 0 8 16" fill="none" xmlns="http://www.w3.org/2000/svg">
<path d="M6.58345 0.708477C6.82684 0.708001 7.06271 0.792767 7.25012 0.94806C7.3556 1.03551 7.44279 1.1429 7.5067 1.2641C7.5706 1.38529 7.60997 1.51791 7.62255 1.65434C7.63513 1.79077 7.62067 1.92835 7.58 2.05919C7.53933 2.19002 7.47325 2.31155 7.38554 2.41681L2.71887 8.00014L7.21887 13.5939C7.3054 13.7004 7.37001 13.823 7.409 13.9546C7.448 14.0863 7.46059 14.2243 7.44607 14.3608C7.43155 14.4972 7.3902 14.6295 7.3244 14.75C7.25859 14.8704 7.16963 14.9767 7.06262 15.0626C6.95484 15.1575 6.82863 15.229 6.6919 15.2727C6.55517 15.3165 6.41087 15.3315 6.26806 15.3168C6.12526 15.3021 5.98703 15.2581 5.86204 15.1875C5.73706 15.1169 5.62803 15.0212 5.54179 14.9064L0.510536 8.65639C0.357326 8.47 0.27357 8.23621 0.27357 7.99494C0.27357 7.75366 0.357326 7.51987 0.510536 7.33348L5.71887 1.08348C5.82337 0.957417 5.95611 0.857768 6.10633 0.792613C6.25655 0.727458 6.42001 0.698632 6.58345 0.708477Z" fill="black"/>
</svg>
